<svg xmlns="http://www.w3.org/2000/svg" width="24.121" height="19.591" viewBox="0 0 24.121 19.591">
  <path id="Icon_awesome-twitter" data-name="Icon awesome-twitter" d="M21.641,8.263c.015.214.015.429.015.643A13.969,13.969,0,0,1,7.591,22.971,13.97,13.97,0,0,1,0,20.752a10.228,10.228,0,0,0,1.194.061A9.9,9.9,0,0,0,7.331,18.7a4.952,4.952,0,0,1-4.622-3.428,6.234,6.234,0,0,0,.934.077,5.228,5.228,0,0,0,1.3-.168A4.944,4.944,0,0,1,.979,10.329v-.061a4.979,4.979,0,0,0,2.235.627,4.951,4.951,0,0,1-1.53-6.612A14.052,14.052,0,0,0,11.877,9.457a5.581,5.581,0,0,1-.122-1.133A4.948,4.948,0,0,1,20.31,4.942a9.733,9.733,0,0,0,3.138-1.194,4.93,4.93,0,0,1-2.173,2.724,9.91,9.91,0,0,0,2.847-.765,10.627,10.627,0,0,1-2.479,2.556Z" transform="translate(0 -3.381)" fill="#f5f5f5"/>
</svg>
