<svg xmlns="http://www.w3.org/2000/svg" width="17.135" height="17.134" viewBox="0 0 17.135 17.134">
  <path id="Icon_awesome-linkedin-in" data-name="Icon awesome-linkedin-in" d="M3.835,17.135H.283V5.7H3.835Zm-1.778-13A2.067,2.067,0,1,1,4.115,2.058,2.075,2.075,0,0,1,2.057,4.135Zm15.074,13H13.586V11.566c0-1.327-.027-3.029-1.847-3.029-1.847,0-2.13,1.442-2.13,2.934v5.664H6.061V5.7H9.468v1.56h.05a3.733,3.733,0,0,1,3.361-1.847c3.6,0,4.256,2.368,4.256,5.443v6.284Z" transform="translate(0 -0.001)" fill="#f5f5f5"/>
</svg>
