<svg id="Icon_awesome-behance" data-name="Icon awesome-behance" xmlns="http://www.w3.org/2000/svg" width="23.223" height="14.558" viewBox="0 0 23.223 14.558">
  <path id="Icon_awesome-behance-2" data-name="Icon awesome-behance" d="M9.354,11.825A3.06,3.06,0,0,0,11.3,8.841C11.3,6,9.184,5.3,6.737,5.3H0V19.59H6.926c2.6,0,5.036-1.246,5.036-4.149a3.443,3.443,0,0,0-2.609-3.616ZM3.141,7.741H6.088c1.133,0,2.153.319,2.153,1.633,0,1.214-.794,1.7-1.915,1.7H3.141V7.741ZM6.5,17.163H3.141V13.228H6.564c1.383,0,2.258.577,2.258,2.04,0,1.443-1.044,1.895-2.322,1.895Zm14.454-9.7H15.159V6.051h5.794Zm2.27,7.108c0-3.06-1.79-5.612-5.036-5.612a5.2,5.2,0,0,0-5.294,5.475c0,3.221,2.028,5.431,5.294,5.431a4.612,4.612,0,0,0,4.842-3.479H20.521a2.354,2.354,0,0,1-2.246,1.351,2.34,2.34,0,0,1-2.54-2.633H23.2C23.21,14.929,23.223,14.748,23.223,14.566ZM15.74,13.308A2.221,2.221,0,0,1,18.1,11.1a2.118,2.118,0,0,1,2.266,2.209Z" transform="translate(0 -5.302)" fill="#f5f5f5"/>
</svg>
